<svg xmlns="http://www.w3.org/2000/svg" viewBox="0 0 640 240" width="640" height="240" role="img" aria-label="三個 commit 串成一條線，每個 commit 指向它的上一個">
<title>三個 commit 串成一條線，每個 commit 指向它的上一個</title>
<defs><marker id="parent-bg" viewBox="0 0 10 10" refX="10" refY="5" markerWidth="5" markerHeight="5" orient="auto"><path d="M0 0 L10 5 L0 10 z" fill="#282c34"/></marker><marker id="parent-text" viewBox="0 0 10 10" refX="10" refY="5" markerWidth="5" markerHeight="5" orient="auto"><path d="M0 0 L10 5 L0 10 z" fill="#d7dae0"/></marker><marker id="parent-muted" viewBox="0 0 10 10" refX="10" refY="5" markerWidth="5" markerHeight="5" orient="auto"><path d="M0 0 L10 5 L0 10 z" fill="#7f848e"/></marker><marker id="parent-line" viewBox="0 0 10 10" refX="10" refY="5" markerWidth="5" markerHeight="5" orient="auto"><path d="M0 0 L10 5 L0 10 z" fill="#4b5263"/></marker><marker id="parent-main" viewBox="0 0 10 10" refX="10" refY="5" markerWidth="5" markerHeight="5" orient="auto"><path d="M0 0 L10 5 L0 10 z" fill="#f4b936"/></marker><marker id="parent-blue" viewBox="0 0 10 10" refX="10" refY="5" markerWidth="5" markerHeight="5" orient="auto"><path d="M0 0 L10 5 L0 10 z" fill="#61afef"/></marker><marker id="parent-green" viewBox="0 0 10 10" refX="10" refY="5" markerWidth="5" markerHeight="5" orient="auto"><path d="M0 0 L10 5 L0 10 z" fill="#98c379"/></marker><marker id="parent-purple" viewBox="0 0 10 10" refX="10" refY="5" markerWidth="5" markerHeight="5" orient="auto"><path d="M0 0 L10 5 L0 10 z" fill="#c678dd"/></marker><marker id="parent-red" viewBox="0 0 10 10" refX="10" refY="5" markerWidth="5" markerHeight="5" orient="auto"><path d="M0 0 L10 5 L0 10 z" fill="#e06c75"/></marker><marker id="parent-cyan" viewBox="0 0 10 10" refX="10" refY="5" markerWidth="5" markerHeight="5" orient="auto"><path d="M0 0 L10 5 L0 10 z" fill="#56b6c2"/></marker><marker id="parent-orange" viewBox="0 0 10 10" refX="10" refY="5" markerWidth="5" markerHeight="5" orient="auto"><path d="M0 0 L10 5 L0 10 z" fill="#d19a66"/></marker></defs>
<rect width="640" height="240" rx="10" fill="#282c34"/>
<text x="20" y="26" text-anchor="start" font-family='-apple-system, BlinkMacSystemFont, "Noto Sans TC", "PingFang TC", "Microsoft JhengHei", sans-serif' font-size="14" font-weight="600" fill="#d7dae0">每個 commit 都記著「我接在誰後面」，箭頭指向上一個</text>
<path d="M272 116 L128 116" fill="none" stroke="#f4b936" stroke-width="3" marker-end="url(#parent-main)"/>
<path d="M416 116 L272 116" fill="none" stroke="#f4b936" stroke-width="3" marker-end="url(#parent-main)"/>
<g><circle cx="128" cy="116" r="8" fill="#f4b936"/>
<text x="128" y="140" text-anchor="middle" font-family='ui-monospace, SFMono-Regular, Menlo, Consolas, monospace' font-size="12" font-weight="400" fill="#7f848e">a1f3c</text>
<text x="128" y="155" text-anchor="middle" font-family='-apple-system, BlinkMacSystemFont, "Noto Sans TC", "PingFang TC", "Microsoft JhengHei", sans-serif' font-size="12" font-weight="400" fill="#d7dae0">建專案</text>
</g>
<g><circle cx="272" cy="116" r="8" fill="#f4b936"/>
<text x="272" y="140" text-anchor="middle" font-family='ui-monospace, SFMono-Regular, Menlo, Consolas, monospace' font-size="12" font-weight="400" fill="#7f848e">7b2e9</text>
<text x="272" y="155" text-anchor="middle" font-family='-apple-system, BlinkMacSystemFont, "Noto Sans TC", "PingFang TC", "Microsoft JhengHei", sans-serif' font-size="12" font-weight="400" fill="#d7dae0">加首頁</text>
</g>
<g><circle cx="416" cy="116" r="8" fill="#f4b936"/>
<text x="416" y="140" text-anchor="middle" font-family='ui-monospace, SFMono-Regular, Menlo, Consolas, monospace' font-size="12" font-weight="400" fill="#7f848e">c04d1</text>
<text x="416" y="155" text-anchor="middle" font-family='-apple-system, BlinkMacSystemFont, "Noto Sans TC", "PingFang TC", "Microsoft JhengHei", sans-serif' font-size="12" font-weight="400" fill="#d7dae0">修 RWD</text>
</g>
<rect x="393.6" y="82" width="44.8" height="20" rx="5" fill="#f4b936"/><text x="416" y="96" text-anchor="middle" font-family='ui-monospace, SFMono-Regular, Menlo, Consolas, monospace' font-size="12" font-weight="600" fill="#282c34">main</text>
<text x="476" y="120" text-anchor="start" font-family='-apple-system, BlinkMacSystemFont, "Noto Sans TC", "PingFang TC", "Microsoft JhengHei", sans-serif' font-size="12" font-weight="400" fill="#7f848e">← 最新的在這邊</text>
</svg>