<svg xmlns="http://www.w3.org/2000/svg" viewBox="0 0 640 280" width="640" height="280" role="img" aria-label="reset 之後舊的 commit 沒有消失，reflog 還記得它">
<title>reset 之後舊的 commit 沒有消失，reflog 還記得它</title>
<defs><marker id="parent-bg" viewBox="0 0 10 10" refX="10" refY="5" markerWidth="5" markerHeight="5" orient="auto"><path d="M0 0 L10 5 L0 10 z" fill="#282c34"/></marker><marker id="parent-text" viewBox="0 0 10 10" refX="10" refY="5" markerWidth="5" markerHeight="5" orient="auto"><path d="M0 0 L10 5 L0 10 z" fill="#d7dae0"/></marker><marker id="parent-muted" viewBox="0 0 10 10" refX="10" refY="5" markerWidth="5" markerHeight="5" orient="auto"><path d="M0 0 L10 5 L0 10 z" fill="#7f848e"/></marker><marker id="parent-line" viewBox="0 0 10 10" refX="10" refY="5" markerWidth="5" markerHeight="5" orient="auto"><path d="M0 0 L10 5 L0 10 z" fill="#4b5263"/></marker><marker id="parent-main" viewBox="0 0 10 10" refX="10" refY="5" markerWidth="5" markerHeight="5" orient="auto"><path d="M0 0 L10 5 L0 10 z" fill="#f4b936"/></marker><marker id="parent-blue" viewBox="0 0 10 10" refX="10" refY="5" markerWidth="5" markerHeight="5" orient="auto"><path d="M0 0 L10 5 L0 10 z" fill="#61afef"/></marker><marker id="parent-green" viewBox="0 0 10 10" refX="10" refY="5" markerWidth="5" markerHeight="5" orient="auto"><path d="M0 0 L10 5 L0 10 z" fill="#98c379"/></marker><marker id="parent-purple" viewBox="0 0 10 10" refX="10" refY="5" markerWidth="5" markerHeight="5" orient="auto"><path d="M0 0 L10 5 L0 10 z" fill="#c678dd"/></marker><marker id="parent-red" viewBox="0 0 10 10" refX="10" refY="5" markerWidth="5" markerHeight="5" orient="auto"><path d="M0 0 L10 5 L0 10 z" fill="#e06c75"/></marker><marker id="parent-cyan" viewBox="0 0 10 10" refX="10" refY="5" markerWidth="5" markerHeight="5" orient="auto"><path d="M0 0 L10 5 L0 10 z" fill="#56b6c2"/></marker><marker id="parent-orange" viewBox="0 0 10 10" refX="10" refY="5" markerWidth="5" markerHeight="5" orient="auto"><path d="M0 0 L10 5 L0 10 z" fill="#d19a66"/></marker></defs>
<rect width="640" height="280" rx="10" fill="#282c34"/>
<text x="20" y="26" text-anchor="start" font-family='-apple-system, BlinkMacSystemFont, "Noto Sans TC", "PingFang TC", "Microsoft JhengHei", sans-serif' font-size="14" font-weight="600" fill="#d7dae0">--hard 退回去之後，D 看起來不見了。其實它還在，reflog 記著 HEAD 曾經指過它</text>
<path d="M128 116 L56 116" fill="none" stroke="#f4b936" stroke-width="3"/>
<path d="M200 116 L128 116" fill="none" stroke="#f4b936" stroke-width="3"/>
<path d="M272 116 L200 116" fill="none" stroke="#f4b936" stroke-width="3" opacity="0.35"/>
<g><circle cx="56" cy="116" r="8" fill="#f4b936"/>
<text x="56" y="140" text-anchor="middle" font-family='ui-monospace, SFMono-Regular, Menlo, Consolas, monospace' font-size="12" font-weight="400" fill="#7f848e">A</text>
</g>
<g><circle cx="128" cy="116" r="8" fill="#f4b936"/>
<text x="128" y="140" text-anchor="middle" font-family='ui-monospace, SFMono-Regular, Menlo, Consolas, monospace' font-size="12" font-weight="400" fill="#7f848e">B</text>
</g>
<g><circle cx="200" cy="116" r="8" fill="#f4b936"/>
<text x="200" y="140" text-anchor="middle" font-family='ui-monospace, SFMono-Regular, Menlo, Consolas, monospace' font-size="12" font-weight="400" fill="#7f848e">C</text>
</g>
<g opacity="0.35"><circle cx="272" cy="116" r="8" fill="#f4b936"/>
<text x="272" y="140" text-anchor="middle" font-family='ui-monospace, SFMono-Regular, Menlo, Consolas, monospace' font-size="12" font-weight="400" fill="#7f848e">D</text>
<text x="272" y="155" text-anchor="middle" font-family='-apple-system, BlinkMacSystemFont, "Noto Sans TC", "PingFang TC", "Microsoft JhengHei", sans-serif' font-size="12" font-weight="400" fill="#d7dae0">沒標籤的孤兒</text>
</g>
<rect x="177.6" y="82" width="44.8" height="20" rx="5" fill="#f4b936"/><text x="200" y="96" text-anchor="middle" font-family='ui-monospace, SFMono-Regular, Menlo, Consolas, monospace' font-size="12" font-weight="600" fill="#282c34">main</text>
<text x="332" y="96" text-anchor="start" font-family='ui-monospace, SFMono-Regular, Menlo, Consolas, monospace' font-size="12" font-weight="400" fill="#7f848e">HEAD@{1}: commit: 誤提交</text>
<text x="332" y="116" text-anchor="start" font-family='ui-monospace, SFMono-Regular, Menlo, Consolas, monospace' font-size="12" font-weight="400" fill="#7f848e">HEAD@{0}: reset: moving to HEAD~1</text>
<text x="20" y="262" text-anchor="start" font-family='-apple-system, BlinkMacSystemFont, "Noto Sans TC", "PingFang TC", "Microsoft JhengHei", sans-serif' font-size="12" font-weight="400" fill="#7f848e">git reflog 找到 D 的 hash，git branch rescue &lt;hash&gt; 貼張便利貼上去，它就回來了。大約保留 90 天</text>
</svg>