<?xml version="1.0" encoding="UTF-8"?>
<svg xmlns="http://www.w3.org/2000/svg" version="1.1" viewBox="0 0 1070.1 988.3">
  <defs>
    <style>
      .cls-1 {
        font-family: Roboto-Bold, Roboto;
        font-size: 91.7px;
        font-weight: 700;
      }

      .cls-2 {
        fill: #fff;
      }

      .cls-3 {
        fill: #ff6584;
      }

      .cls-4 {
        fill: #a0a0a0;
        font-family: Roboto-Medium, Roboto;
        font-size: 50px;
        font-weight: 500;
      }

      .cls-5 {
        fill: #f9d126;
      }

      .cls-6 {
        fill: #3f3d56;
      }

      .cls-7 {
        fill: #f2f2f2;
      }

      .cls-8 {
        fill: #ccc;
      }

      .cls-9 {
        fill: #e6e6e6;
      }
    </style>
  </defs>
  <!-- Generator: Adobe Illustrator 28.7.1, SVG Export Plug-In . SVG Version: 1.2.0 Build 142)  -->
  <g>
    <g id="_圖層_1" data-name="圖層_1">
      <path class="cls-2" d="M884.2,625H309c-18.2,0-33-14.8-33-33v-307c0-18.2,14.8-33,33-33h575.2c18.2,0,33,14.8,33,33v307c0,18.2-14.8,33-33,33Z"/>
      <path class="cls-7" d="M884.2,625H309c-18.2,0-33-14.8-33-33v-307c0-18.2,14.8-33,33-33h575.2c18.2,0,33,14.8,33,33v307c0,18.2-14.8,33-33,33ZM309,254c-17.1,0-31,13.9-31,31v307c0,17.1,13.9,31,31,31h575.2c17.1,0,31-13.9,31-31v-307c0-17.1-13.9-31-31-31H309Z"/>
      <path class="cls-7" d="M884.2,601H309c-5,0-9-4-9-9v-307c0-5,4-9,9-9h575.2c5,0,9,4,9,9v307c0,5-4,9-9,9ZM309,278c-3.9,0-7,3.1-7,7v307c0,3.9,3.1,7,7,7h575.2c3.9,0,7-3.1,7-7v-307c0-3.9-3.1-7-7-7H309Z"/>
      <path class="cls-7" d="M737.8,602.5L181.8,455.1c-17.6-4.7-28.1-22.7-23.4-40.4L237,118c4.7-17.6,22.7-28.1,40.4-23.4l556,147.4c17.6,4.7,28.1,22.7,23.4,40.4l-78.7,296.8c-4.7,17.6-22.7,28.1-40.4,23.4Z"/>
      <path class="cls-9" d="M737.8,602.5L181.8,455.1c-17.6-4.7-28.1-22.7-23.4-40.4L237,118c4.7-17.6,22.7-28.1,40.4-23.4l556,147.4c17.6,4.7,28.1,22.7,23.4,40.4l-78.7,296.8c-4.7,17.6-22.7,28.1-40.4,23.4ZM276.9,96.5c-16.5-4.4-33.5,5.5-37.9,22l-78.7,296.8c-4.4,16.5,5.5,33.5,22,37.9l556,147.4c16.5,4.4,33.5-5.5,37.9-22l78.7-296.8c4.4-16.5-5.5-33.5-22-37.9L276.9,96.5Z"/>
      <path class="cls-2" d="M743.9,579.3L187.9,431.9c-4.8-1.3-7.7-6.2-6.4-11l78.7-296.8c1.3-4.8,6.2-7.7,11-6.4l556,147.4c4.8,1.3,7.7,6.2,6.4,11l-78.7,296.8c-1.3,4.8-6.2,7.7-11,6.4ZM270.7,119.7c-3.7-1-7.6,1.2-8.6,5l-78.7,296.8c-1,3.7,1.2,7.6,5,8.6l556,147.4c3.7,1,7.6-1.2,8.6-5l78.7-296.8c1-3.7-1.2-7.6-5-8.6L270.7,119.7Z"/>
      <path class="cls-2" d="M761.2,666H186c-18.2,0-33-14.8-33-33v-307c0-18.2,14.8-33,33-33h575.2c18.2,0,33,14.8,33,33v307c0,18.2-14.8,33-33,33Z"/>
      <path class="cls-9" d="M604.9,640H233.5c-.5,0-.9,0-1.4,0l175.7-98.9c3.3-1.9,10.8-2.6,16.8-1.5,1.6.2,3.2.8,4.6,1.5l117.9,66.4,5.6,3.2,52.2,29.4Z"/>
      <path class="cls-9" d="M722.1,640h-321.3l62.3-29.4,4.5-2.1,81.1-38.3c5.3-2.5,18.1-2.7,24.4-.5.4.1.8.3,1.2.5l147.9,69.8Z"/>
      <path class="cls-6" d="M186,295c-17.1,0-31,13.9-31,31v307c0,17.1,13.9,31,31,31h575.2c17.1,0,31-13.9,31-31v-307c0-17.1-13.9-31-31-31H186Z"/>
      <path class="cls-8" d="M761.2,642H186c-5,0-9-4-9-9v-307c0-5,4-9,9-9h575.2c5,0,9,4,9,9v307c0,5-4,9-9,9ZM186,319c-3.9,0-7,3.1-7,7v307c0,3.9,3.1,7,7,7h575.2c3.9,0,7-3.1,7-7v-307c0-3.9-3.1-7-7-7H186Z"/>
      <circle class="cls-3" cx="633" cy="311.3" r="61.9" transform="translate(-34.7 538.8) rotate(-45)"/>
      <ellipse class="cls-7" cx="658.9" cy="438.6" rx="78.4" ry="98.1"/>
      <polygon class="cls-8" points="659.1 418.8 659.3 418.8 663.2 641.1 655 641.1 659.1 418.8"/>
      <path class="cls-8" d="M672.5,566h0c.5.9.1,2.1-.8,2.6l-11.2,5.9-1.8-3.4,11.2-5.9c.9-.5,2.1-.1,2.6.8Z"/>
      <ellipse class="cls-7" cx="433.5" cy="438.6" rx="78.4" ry="98.1"/>
      <path class="cls-8" d="M447.1,569.7h0c-.5-.9-1.7-1.3-2.6-.8l-7.9,4.1-2.7-154.2h-.2l-4.1,222.3h8.2l-1.1-63.8,9.6-5c.9-.5,1.3-1.7.8-2.6Z"/>
      <path class="cls-5" d="M545.9,212.4c54.9,0,99.5,103.4,99.5,172.1s-44.5,124.4-99.3,124.4-99.3-55.7-99.3-124.4,44.4-172.1,99.2-172.1Z"/>
      <path class="cls-6" d="M563.2,549.6c-.6-1.2-2.1-1.7-3.3-1,0,0,0,0,0,0l-9.9,5.2-3.4-195.3h-.3l-5.2,281.7h10.4l-1.4-80.8,12.1-6.4c1.2-.6,1.7-2.1,1-3.3,0,0,0,0,0,0Z"/>
      <path class="cls-2" d="M763.2,664H188c-18.2,0-33-14.8-33-33v-307c0-18.2,14.8-33,33-33h575.2c18.2,0,33,14.8,33,33v307c0,18.2-14.8,33-33,33Z"/>
      <path class="cls-9" d="M606.9,638H235.5c-.5,0-.9,0-1.4,0l175.7-98.9c3.3-1.9,10.8-2.6,16.8-1.5,1.6.2,3.2.8,4.6,1.5l117.9,66.4,5.6,3.2,52.2,29.4Z"/>
      <path class="cls-9" d="M724.1,638h-321.3l62.3-29.4,4.5-2.1,81.1-38.3c5.3-2.5,18.1-2.7,24.4-.5.4.1.8.3,1.2.5l147.9,69.8Z"/>
      <path class="cls-6" d="M763.2,664H188c-18.2,0-33-14.8-33-33v-307c0-18.2,14.8-33,33-33h575.2c18.2,0,33,14.8,33,33v307c0,18.2-14.8,33-33,33ZM188,293c-17.1,0-31,13.9-31,31v307c0,17.1,13.9,31,31,31h575.2c17.1,0,31-13.9,31-31v-307c0-17.1-13.9-31-31-31H188Z"/>
      <path class="cls-8" d="M763.2,640H188c-5,0-9-4-9-9v-307c0-5,4-9,9-9h575.2c5,0,9,4,9,9v307c0,5-4,9-9,9ZM188,317c-3.9,0-7,3.1-7,7v307c0,3.9,3.1,7,7,7h575.2c3.9,0,7-3.1,7-7v-307c0-3.9-3.1-7-7-7H188Z"/>
      <circle class="cls-3" cx="635" cy="309.3" r="61.9" transform="translate(-32.7 539.6) rotate(-45)"/>
      <ellipse class="cls-7" cx="660.9" cy="436.6" rx="78.4" ry="98.1"/>
      <polygon class="cls-8" points="661.1 416.8 661.3 416.8 665.2 639.1 657 639.1 661.1 416.8"/>
      <path class="cls-8" d="M674.5,564h0c.5.9.1,2.1-.8,2.6l-11.2,5.9-1.8-3.4,11.2-5.9c.9-.5,2.1-.1,2.6.8Z"/>
      <ellipse class="cls-7" cx="435.5" cy="436.6" rx="78.4" ry="98.1"/>
      <path class="cls-8" d="M449.1,567.7h0c-.5-.9-1.7-1.3-2.6-.8l-7.9,4.1-2.7-154.2h-.2l-4.1,222.3h8.2l-1.1-63.8,9.6-5c.9-.5,1.3-1.7.8-2.6Z"/>
      <path class="cls-5" d="M547.9,210.4c54.9,0,99.5,103.4,99.5,172.1s-44.5,124.4-99.3,124.4-99.3-55.7-99.3-124.4,44.4-172.1,99.2-172.1Z"/>
      <path class="cls-6" d="M565.2,547.6c-.6-1.2-2.1-1.7-3.3-1,0,0,0,0,0,0l-9.9,5.2-3.4-195.3h-.3l-5.2,281.7h10.4l-1.4-80.8,12.1-6.4c1.2-.6,1.7-2.1,1-3.3,0,0,0,0,0,0Z"/>
      <text class="cls-1" transform="translate(318.1 827.8)"><tspan x="0" y="0">NO IMAGE</tspan></text>
      <text class="cls-4" transform="translate(364.2 890.2)"><tspan x="0" y="0">COMING SOON</tspan></text>
    </g>
  </g>
</svg>